<?xml version="1.0" standalone="no"?><!DOCTYPE svg PUBLIC "-//W3C//DTD SVG 1.1//EN" "http://www.w3.org/Graphics/SVG/1.1/DTD/svg11.dtd"><svg t="1550209745394" class="icon" style="" viewBox="0 0 1092 1024" version="1.1" xmlns="http://www.w3.org/2000/svg" p-id="39011" xmlns:xlink="http://www.w3.org/1999/xlink" width="31.9921875" height="30"><defs><style type="text/css"></style></defs><path d="M392.114859 0h308.087466a68.266667 68.266667 0 0 1 67.584 58.231467l50.653867 341.333333A68.266667 68.266667 0 0 1 750.992725 477.866667H341.392725a68.266667 68.266667 0 0 1-67.584-78.301867l50.7904-341.333333A68.266667 68.266667 0 0 1 392.114859 0z m-273.066667 546.133333h308.087467a68.266667 68.266667 0 0 1 67.584 58.231467l50.653866 341.333333A68.266667 68.266667 0 0 1 477.926059 1024H68.326059a68.266667 68.266667 0 0 1-67.584-78.301867l50.7904-341.333333A68.266667 68.266667 0 0 1 119.048192 546.133333z m546.133333 0h308.087467a68.266667 68.266667 0 0 1 67.584 58.231467l50.653867 341.333333A68.266667 68.266667 0 0 1 1024.059392 1024H614.459392a68.266667 68.266667 0 0 1-67.584-78.301867l50.7904-341.333333A68.266667 68.266667 0 0 1 665.181525 546.133333zM477.926059 136.533333L409.659392 341.333333h273.066667L614.459392 136.533333H477.926059z m-273.066667 546.133334l-68.266667 204.8h273.066667l-68.266667-204.8H204.859392z m546.133333 0l-68.266666 204.8h273.066666l-68.266666-204.8h-136.533334z" p-id="39012"></path></svg>