<?xml version="1.0" standalone="no"?><!DOCTYPE svg PUBLIC "-//W3C//DTD SVG 1.1//EN" "http://www.w3.org/Graphics/SVG/1.1/DTD/svg11.dtd"><svg t="1550209359527" class="icon" style="" viewBox="0 0 1024 1024" version="1.1" xmlns="http://www.w3.org/2000/svg" p-id="35697" xmlns:xlink="http://www.w3.org/1999/xlink" width="30" height="30"><defs><style type="text/css"></style></defs><path d="M895.671591 0.856015l-153.462739 0c0 0-76.746128-4.604768-76.746128 51.154246 0 35.126113-21.518434 47.405493-41.82664 51.154246l-215.538549 0c-22.049753-2.715632-49.619324-13.666714-49.619324-51.154246 0-62.754719-76.687093-51.154246-76.687093-51.154246l-153.521774 0c-28.218961 0-51.124728 22.905767-51.124728 51.154246L77.144616 972.845728c0 28.248479 22.87625 51.154246 51.124728 51.154246l511.601498 0 51.183764 0 25.591882 0 230.208867-230.208867 0-25.562364 0-51.154246 0-665.064236C946.825837 23.761782 923.949587 0.856015 895.671591 0.856015zM281.791118 358.965256l460.417734 0 0 51.154246-460.417734 0L281.791118 358.965256zM537.591867 768.228743l-255.800749 0 0-51.154246 255.800749 0L537.591867 768.228743zM281.791118 589.174123l0-51.154246 460.417734 0 0 51.154246L281.791118 589.174123zM691.025088 972.845728l0-179.054621c0-14.138998 11.452884-25.562364 25.591882-25.562364l179.054621 0L691.025088 972.845728z" p-id="35698"></path><path d="M403.463249 0l217.043954 0 0 51.154246-217.043954 0 0-51.154246Z" p-id="35699"></path></svg>