<?xml version="1.0" standalone="no"?><!DOCTYPE svg PUBLIC "-//W3C//DTD SVG 1.1//EN" "http://www.w3.org/Graphics/SVG/1.1/DTD/svg11.dtd"><svg t="1550212021740" class="icon" style="" viewBox="0 0 1024 1024" version="1.1" xmlns="http://www.w3.org/2000/svg" p-id="58940" xmlns:xlink="http://www.w3.org/1999/xlink" width="30" height="30"><defs><style type="text/css"></style></defs><path d="M74.18311111 220.72888889c0-80.09955555 65.536-145.63555555 145.63555556-145.63555556s145.63555555 65.536 145.63555555 145.63555556-65.536 145.63555555-145.63555555 145.63555556-145.63555555-65.536-145.63555556-145.63555556z m729.99822222 145.63555556c80.09955555 0 145.63555555-65.536 145.63555556-145.63555556s-65.536-145.63555555-145.63555556-145.63555556-145.63555555 65.536-145.63555555 145.63555556 64.62577778 145.63555555 145.63555555 145.63555556z m0 72.81777777c-80.09955555 0-145.63555555 65.536-145.63555555 145.63555556v58.25422222L512 727.72266667l-145.63555555-84.65066667V584.81777778c0-80.09955555-65.536-145.63555555-145.63555556-145.63555556s-145.63555555 65.536-145.63555556 145.63555556v327.68c0 20.02488889 16.384 36.40888889 36.40888889 36.40888889h218.45333333c20.02488889 0 36.40888889-16.384 36.4088889-36.40888889V727.72266667l125.61066666 72.81777778c0.91022222 0 0.91022222 0.91022222 1.82044444 0.91022222 10.92266667 6.37155555 24.576 7.28177778 36.4088889 0l128.34133333-74.63822222V912.49777778c0 20.02488889 16.384 36.40888889 36.40888889 36.40888889h218.45333333c20.02488889 0 36.40888889-16.384 36.40888889-36.40888889V584.81777778c0-80.09955555-65.536-145.63555555-145.63555556-145.63555556z" p-id="58941"></path></svg>