<?xml version="1.0" standalone="no"?><!DOCTYPE svg PUBLIC "-//W3C//DTD SVG 1.1//EN" "http://www.w3.org/Graphics/SVG/1.1/DTD/svg11.dtd"><svg t="1550210232167" class="icon" style="" viewBox="0 0 1025 1024" version="1.1" xmlns="http://www.w3.org/2000/svg" p-id="50926" xmlns:xlink="http://www.w3.org/1999/xlink" width="30.029296875" height="30"><defs><style type="text/css"></style></defs><path d="M416 448C416 448 416 448 416 448c121.6 0 243.2-134.4 243.2-134.4l19.2-19.2 230.4 243.2c44.8-44.8 115.2-128 115.2-230.4 6.4-70.4-25.6-134.4-83.2-192C768-64 588.8 102.4 582.4 108.8L300.8 396.8C332.8 428.8 371.2 448 416 448z" p-id="50927"></path><path d="M288 556.8c6.4-6.4 6.4-12.8 6.4-19.2 0-12.8-6.4-19.2-12.8-25.6C268.8 499.2 256 499.2 243.2 499.2 236.8 499.2 224 505.6 217.6 512l-102.4 128c-12.8 19.2-12.8 44.8 6.4 57.6 12.8 12.8 32 12.8 44.8 0 0 0 0 0 0-6.4l102.4-128C275.2 563.2 281.6 563.2 288 556.8z" p-id="50928"></path><path d="M377.6 646.4C377.6 640 384 627.2 384 620.8c0-12.8-6.4-19.2-12.8-25.6C358.4 582.4 352 582.4 339.2 582.4c-6.4 0-12.8 0-19.2 6.4 0 0 0 0 0 6.4l-102.4 128c0 6.4-6.4 6.4-12.8 12.8-6.4 19.2-6.4 38.4 12.8 51.2 6.4 6.4 19.2 6.4 32 6.4 6.4 0 12.8-6.4 19.2-6.4 0 0 0 0 0 0l102.4-128C371.2 652.8 371.2 646.4 377.6 646.4z" p-id="50929"></path><path d="M467.2 729.6c6.4-19.2 6.4-38.4-12.8-51.2-6.4-6.4-12.8-6.4-25.6-6.4 0 0 0 0-6.4 0-6.4 0-12.8 6.4-19.2 6.4 0 0 0 0 0 0l-102.4 128c0 0-6.4 6.4-6.4 6.4-6.4 6.4-6.4 19.2-6.4 25.6 0 12.8 6.4 19.2 12.8 25.6 6.4 6.4 19.2 12.8 32 6.4 6.4 0 19.2-6.4 25.6-12.8 0 0 0-6.4 6.4-6.4L467.2 729.6C467.2 729.6 467.2 729.6 467.2 729.6z" p-id="50930"></path><path d="M576 780.8c0-12.8-6.4-19.2-12.8-25.6-6.4-6.4-19.2-6.4-25.6-6.4-12.8 0-19.2 6.4-25.6 12.8 0 0 0 6.4-6.4 6.4l-102.4 128c0 0 0 0 0 6.4-6.4 6.4-6.4 12.8-6.4 19.2 0 12.8 6.4 19.2 12.8 25.6 19.2 12.8 44.8 12.8 57.6-6.4l102.4-128C569.6 800 576 793.6 576 780.8z" p-id="50931"></path><path d="M576 870.4l-57.6 70.4 32 32c6.4 6.4 19.2 12.8 32 12.8 12.8 0 25.6-6.4 32-12.8 6.4-6.4 12.8-19.2 12.8-32 0-12.8-6.4-25.6-12.8-32L576 870.4z" p-id="50932"></path><path d="M755.2 448C755.2 448 755.2 441.6 755.2 448l-83.2-89.6C633.6 403.2 531.2 492.8 416 492.8c0 0 0 0 0 0-64 0-121.6-25.6-166.4-83.2L236.8 390.4l236.8-236.8L448 128c0 0-83.2-83.2-192-83.2C192 44.8 128 70.4 70.4 128 19.2 172.8 0 230.4 0 288c0 115.2 96 217.6 128 256l51.2-64c12.8-19.2 38.4-32 57.6-32 25.6 0 44.8 6.4 64 19.2 19.2 12.8 32 38.4 32 57.6 0 0 0 6.4 0 6.4 19.2 0 44.8 6.4 57.6 19.2 19.2 12.8 32 38.4 32 57.6 0 0 0 6.4 0 6.4 19.2 0 44.8 6.4 57.6 19.2 19.2 12.8 32 38.4 32 57.6 25.6-6.4 51.2 0 70.4 19.2 19.2 12.8 32 38.4 32 57.6 0 19.2 0 38.4-12.8 57.6l44.8 44.8c6.4 6.4 19.2 12.8 32 12.8 12.8 0 25.6-6.4 32-12.8 6.4-6.4 12.8-19.2 12.8-32 0-12.8-6.4-25.6-12.8-32 0 0 0 0-6.4-6.4l-160-166.4c-6.4-12.8-6.4-25.6 0-32 6.4-6.4 19.2-6.4 32 0 0 0 6.4 0 6.4 6.4l160 166.4c0 0 0 0 0 0 19.2 12.8 44.8 12.8 64 0 19.2-12.8 19.2-38.4 6.4-57.6 0 0-6.4-6.4-6.4-6.4l-160-166.4c-6.4-12.8-6.4-25.6 0-32 6.4-6.4 19.2-6.4 25.6-6.4 6.4 0 6.4 0 12.8 6.4l160 166.4c0 0 0 6.4 6.4 6.4 19.2 12.8 38.4 12.8 57.6-6.4 6.4-6.4 12.8-19.2 12.8-32 0-12.8-6.4-25.6-12.8-32L755.2 448z" p-id="50933"></path></svg>