<?xml version="1.0" standalone="no"?><!DOCTYPE svg PUBLIC "-//W3C//DTD SVG 1.1//EN" "http://www.w3.org/Graphics/SVG/1.1/DTD/svg11.dtd"><svg t="1550209448891" class="icon" style="" viewBox="0 0 1183 1024" version="1.1" xmlns="http://www.w3.org/2000/svg" p-id="35935" xmlns:xlink="http://www.w3.org/1999/xlink" width="34.658203125" height="30"><defs><style type="text/css"></style></defs><path d="M1130.420323 600.683603 1130.420323 600.683603l-770.95612 23.648961c0 0 0 0-2.364896 0-35.473441-2.364896-37.838337 47.297921 4.729792 44.933025 2.364896 0 4.729792 0 7.094688 0l770.95612 0c16.554273 0 28.378753 11.82448 28.378753 26.013857 0 16.554273-14.189376 44.933025-28.378753 44.933025L368.923788 740.212471c-2.364896 0-4.729792 0-7.094688 0-122.974596-2.364896-111.150115-163.177829-47.297921-163.177829 2.364896-2.364896 2.364896 0 7.094688 0L172.637413 92.230947 120.6097 92.230947C111.150115 111.150115 89.866051 127.704388 63.852194 127.704388 28.378753 127.704388 0 99.325635 0 63.852194 0 28.378753 28.378753 0 63.852194 0c26.013857 0 47.297921 18.919169 59.122402 42.568129l75.676674 0 0 0 9.459584 0 30.743649 87.501155 891.56582 35.473441C1132.785219 163.177829 1182.448037 165.542725 1182.448037 229.394919l-47.297921 0 0 0 0-21.284065 0 0-132.43418-4.729792 0 37.838337L1135.150115 241.2194 1135.150115 229.394919l47.297921 0 0 0 0 0 0 307.43649 0 0C1182.448037 598.318707 1132.785219 600.683603 1130.420323 600.683603M366.558891 577.034642l82.771363-2.364896-11.82448-73.311778-92.230947 0L366.558891 577.034642zM338.180139 465.884527l94.595843 0L425.681293 430.411085l-104.055427 0L338.180139 465.884527zM385.47806 182.096998l-134.799076-4.729792 21.284065 63.852194 122.974596 0L385.47806 182.096998zM402.032333 276.692841l-122.974596 0 14.189376 40.203233 113.515012 0L402.032333 276.692841zM413.856813 352.369515l-111.150115 0 14.189376 40.203233 104.055427 0L413.856813 352.369515zM569.939954 186.82679l-148.988453-4.729792 9.459584 59.122402 141.893764 0L569.939954 186.82679zM574.669746 276.692841l-137.163972 0 7.094688 40.203233 132.43418 0L574.669746 276.692841zM579.399538 352.369515 449.330254 352.369515l7.094688 40.203233 125.339492 0L579.399538 352.369515zM584.12933 430.411085l-120.6097 0 7.094688 37.838337 115.879908 0L584.12933 430.411085zM586.494226 501.357968l-111.150115 0 11.82448 70.946882 104.055427-2.364896L586.494226 501.357968zM761.496536 193.921478 607.778291 189.191686l2.364896 52.027714 151.353349 0L761.496536 193.921478zM763.861432 276.692841l-151.353349 0 2.364896 40.203233 151.353349 0L763.861432 276.692841zM768.591224 352.369515l-151.353349 0 2.364896 40.203233 151.353349 0L768.591224 352.369515zM770.95612 430.411085l-151.353349 0 2.364896 37.838337 151.353349 0L770.95612 430.411085zM775.685912 501.357968l-151.353349 0 4.729792 68.581986 148.988453-4.729792L775.685912 501.357968zM964.877598 201.016166l-167.907621-7.094688 2.364896 44.933025 165.542725 0L964.877598 201.016166zM964.877598 276.692841l-163.177829 0 2.364896 40.203233 160.812933 0L964.877598 276.692841zM964.877598 352.369515 804.064665 352.369515l2.364896 40.203233 158.448037 0L964.877598 352.369515zM964.877598 430.411085l-156.083141 0 2.364896 37.838337 153.718245 0L964.877598 430.411085zM964.877598 501.357968l-153.718245 0 2.364896 63.852194 151.353349-4.729792L964.877598 501.357968zM1135.150115 276.692841l-132.43418 0 0 40.203233L1135.150115 316.896074 1135.150115 276.692841zM1135.150115 352.369515l-132.43418 0 0 40.203233L1135.150115 392.572748 1135.150115 352.369515zM1135.150115 430.411085l-132.43418 0 0 37.838337L1135.150115 468.249423 1135.150115 430.411085zM1135.150115 501.357968l-132.43418 0 0 59.122402 132.43418-2.364896 0-2.364896 0-18.919169L1135.150115 501.357968zM506.08776 780.415704c66.21709 0 120.6097 54.39261 120.6097 120.6097 0 66.21709-54.39261 120.6097-120.6097 120.6097-66.21709 0-120.6097-54.39261-120.6097-120.6097C385.47806 834.808314 439.87067 780.415704 506.08776 780.415704M506.08776 957.78291c30.743649 0 56.757506-26.013857 56.757506-54.39261s-26.013857-54.39261-56.757506-54.39261c-30.743649 0-54.39261 26.013857-54.39261 54.39261S475.344111 957.78291 506.08776 957.78291M1012.17552 780.415704c66.21709 0 120.6097 54.39261 120.6097 120.6097 0 66.21709-54.39261 120.6097-120.6097 120.6097s-120.6097-54.39261-120.6097-120.6097C889.200924 834.808314 943.593533 780.415704 1012.17552 780.415704M1012.17552 957.78291c30.743649 0 54.39261-26.013857 54.39261-54.39261s-26.013857-54.39261-54.39261-54.39261-54.39261 26.013857-54.39261 54.39261S981.431871 957.78291 1012.17552 957.78291" p-id="35936"></path></svg>