<?xml version="1.0" standalone="no"?><!DOCTYPE svg PUBLIC "-//W3C//DTD SVG 1.1//EN" "http://www.w3.org/Graphics/SVG/1.1/DTD/svg11.dtd"><svg t="1550209580057" class="icon" style="" viewBox="0 0 1024 1024" version="1.1" xmlns="http://www.w3.org/2000/svg" p-id="38802" xmlns:xlink="http://www.w3.org/1999/xlink" width="30" height="30"><defs><style type="text/css"></style></defs><path d="M702.413223 338.512397H321.586777c-10.578512 0-21.157025-8.46281-21.157025-21.157025 0-10.578512 8.46281-21.157025 21.157025-21.157025h380.826446c10.578512 0 21.157025 8.46281 21.157025 21.157025s-10.578512 21.157025-21.157025 21.157025zM311.008264 729.917355c27.504132-40.198347 50.77686-90.975207 69.818182-150.214876h-67.702479v-31.735537H385.057851v-71.933884c-19.041322 2.115702-40.198347 2.115702-61.355372 4.231405-2.115702-10.578512-4.231405-21.157025-6.347107-33.85124 63.471074-4.231405 116.363636-8.46281 162.909091-14.809917l8.46281 33.851239c-19.041322 2.115702-40.198347 4.231405-67.70248 6.347108v74.049587H490.842975v31.735537h-71.933884v61.355372l19.041322-16.92562c16.92562 16.92562 35.966942 38.082645 57.123967 61.355372l-25.38843 21.157025c-19.041322-25.38843-35.966942-44.429752-52.892562-61.355372v207.338843H385.057851v-200.991736c-16.92562 44.429752-35.966942 82.512397-59.239669 116.363637-4.231405-8.46281-10.578512-23.272727-14.809918-35.966943z m148.099174 71.933885h55.008264V437.950413h207.338843v363.900827h38.082645v31.735537H459.107438v-31.735537z m88.859504-332.16529v88.859505h135.404959v-88.859505h-135.404959z m0 211.570248h135.404959V592.396694h-135.404959v88.859504z m0 120.595042h135.404959v-90.975207h-135.404959v90.975207zM670.677686 222.14876h-296.198347c-23.272727 0-42.31405-19.041322-42.31405-42.314049v-42.31405c0-23.272727 19.041322-42.31405 42.31405-42.314049H448.528926V63.471074c0-35.966942 27.504132-63.471074 63.471074-63.471074h21.157025c35.966942 0 63.471074 27.504132 63.471074 63.471074v31.735538h74.049587c23.272727 0 42.31405 19.041322 42.31405 42.314049v42.31405c0 23.272727-19.041322 42.31405-42.31405 42.314049z m-296.198347-84.628099v42.31405h296.198347v-42.31405H554.31405V63.471074c0-12.694215-8.46281-21.157025-21.157025-21.157024h-21.157025c-12.694215 0-21.157025 8.46281-21.157025 21.157024v74.049587h-116.363636z" p-id="38803"></path><path d="M892.826446 1024H131.173554c-35.966942 0-63.471074-31.735537-63.471075-67.702479V203.107438c0-38.082645 29.619835-67.702479 63.471075-67.702479h209.454545v44.429752H131.173554c-10.578512 0-21.157025 10.578512-21.157025 25.388429v753.190083c0 12.694215 8.46281 25.38843 21.157025 25.38843h761.652892c10.578512 0 21.157025-10.578512 21.157025-25.38843V203.107438c0-12.694215-8.46281-25.38843-21.157025-25.38843h-186.181818V133.289256H892.826446c35.966942 0 63.471074 31.735537 63.471075 67.70248v753.190082c0 38.082645-27.504132 69.818182-63.471075 69.818182z" p-id="38804"></path></svg>