<?xml version="1.0" standalone="no"?><!DOCTYPE svg PUBLIC "-//W3C//DTD SVG 1.1//EN" "http://www.w3.org/Graphics/SVG/1.1/DTD/svg11.dtd"><svg t="1550209527635" class="icon" style="" viewBox="0 0 1127 1024" version="1.1" xmlns="http://www.w3.org/2000/svg" p-id="37686" xmlns:xlink="http://www.w3.org/1999/xlink" width="33.017578125" height="30"><defs><style type="text/css"></style></defs><path d="M1126.4 424.96c0 76.8-64 140.8-140.8 140.8-76.8 0-140.8-64-140.8-140.8l0 0 0 0 0 0c0 76.8-64 140.8-140.8 140.8-76.8 0-140.8-64-140.8-140.8l0 0 0 0 0 0 0 0c0 76.8-64 140.8-140.8 140.8-76.8 0-140.8-64-140.8-140.8l0 0 0 0 0 0 0 0c0 76.8-64 140.8-140.8 140.8-76.8 0-140.8-64-140.8-140.8l0 0 0 0 0 0L99.84 158.72l929.28 0L1126.4 424.96 1126.4 424.96 1126.4 424.96 1126.4 424.96zM949.76 104.96 176.64 104.96c-28.16 0-53.76-23.04-53.76-53.76C122.88 23.04 145.92 0 176.64 0l773.12 0c28.16 0 53.76 23.04 53.76 53.76C1003.52 81.92 980.48 104.96 949.76 104.96L949.76 104.96zM158.72 616.96 158.72 616.96c5.12 0 10.24 0 15.36-2.56 0 0 2.56 0 2.56 0 2.56 0 5.12 0 7.68-2.56 10.24-2.56 17.92-5.12 28.16-7.68l0 0 0 0 0 261.12 704 0L916.48 604.16l0 0 0 0c10.24 2.56 17.92 5.12 28.16 7.68 2.56 0 5.12 0 7.68 2.56 0 0 2.56 0 2.56 0 5.12 0 10.24 2.56 15.36 2.56l0 0c5.12 0 12.8 0 17.92 0 12.8 0 23.04 0 35.84-2.56l0 355.84c0 28.16-23.04 53.76-53.76 53.76L158.72 1024c-28.16 0-53.76-23.04-53.76-53.76L104.96 614.4c10.24 2.56 23.04 2.56 35.84 2.56C145.92 616.96 153.6 616.96 158.72 616.96L158.72 616.96zM158.72 616.96" p-id="37687"></path></svg>