<?xml version="1.0" standalone="no"?><!DOCTYPE svg PUBLIC "-//W3C//DTD SVG 1.1//EN" "http://www.w3.org/Graphics/SVG/1.1/DTD/svg11.dtd"><svg t="1550203225562" class="icon" style="" viewBox="0 0 1024 1024" version="1.1" xmlns="http://www.w3.org/2000/svg" p-id="14653" xmlns:xlink="http://www.w3.org/1999/xlink" width="30" height="30"><defs><style type="text/css"></style></defs><path d="M995.555556 910.222222h-142.222223v-142.222222c0-15.644444-12.8-28.444444-28.444444-28.444444H199.111111c-15.644444 0-28.444444 12.8-28.444444 28.444444v142.222222H28.444444c-15.644444 0-28.444444-12.8-28.444444-28.444444V369.777778c0-15.644444 12.8-28.444444 28.444444-28.444445h199.111112V28.444444c0-15.644444 12.8-28.444444 28.444444-28.444444h512c15.644444 0 28.444444 12.8 28.444444 28.444444v312.888889h199.111112c15.644444 0 28.444444 12.8 28.444444 28.444445v512c0 15.644444-12.8 28.444444-28.444444 28.444444zM739.555556 56.888889H284.444444v284.444444h455.111112V56.888889z m170.666666 398.222222h-113.777778v56.888889h113.777778v-56.888889z m-113.777778 568.888889H227.555556v-227.555556h568.888888v227.555556z" p-id="14654"></path></svg>